# xmcd
# 
# Track frame offsets:
#     150
#     12482
#     27027
#     36885
#     48750
#     59227
#     73892
#     85732
#     97057
#     114240
#     127015
#     140495
# 
# Disc length: 2042
# 
# Revision: 0
# Processed by: cddbd v1.5.2PL0 Copyright (c) Steve Scherf et al.
# Submitted via: fre:ac v1.0.27
# 
DISCID=a907f80c
DTITLE=Various Artist - Country Hits Of The 80's
DYEAR=1990
DGENRE=Country
TTITLE0=Larry Gatlin and The Gatlin Brothers Band - Take Me To Your Lovin' Place
TTITLE1=Bertie Higgins - Key Largo
TTITLE2=Charly McClain - Who's Cheatin' Who
TTITLE3=Mickey Gilley - That's All That Matters To Me
TTITLE4=Moe Bandy and Joe Stampley - Hey Joe (Hey Moe)
TTITLE5=Crystal Gayle - If You Ever Change Your Mind
TTITLE6=Ronnie McDowell - Older Woman
TTITLE7=Janie Frickie - Down To My Last Broken Heart
TTITLE8=Rosanne Cash - Second To No One
TTITLE9=The O'Kanes - Can't Stop My Heart From Loving You
TTITLE10=Ricky Skaggs - Crying My Heart Out Over You
TTITLE11=Ricky Van Shelton - Wild Eyed Dream
EXTD=
EXTT0=
EXTT1=
EXTT2=
EXTT3=
EXTT4=
EXTT5=
EXTT6=
EXTT7=
EXTT8=
EXTT9=
EXTT10=
EXTT11=
PLAYORDER=
